<svg xmlns="http://www.w3.org/2000/svg" width="720" height="420" viewBox="0 0 720 420">
  <defs>
    <linearGradient id="glow" x1="0" y1="0" x2="1" y2="1">
      <stop offset="0%" stop-color="#15d1b0"/>
      <stop offset="100%" stop-color="#00f0c8"/>
    </linearGradient>
  </defs>
  <rect width="720" height="420" rx="26" fill="#0f1722" stroke="#1f2f44"/>
  <g stroke="#1f2f44" stroke-width="2">
    <rect x="40" y="60" width="140" height="70" rx="14" fill="#131d2b"/>
    <rect x="260" y="40" width="200" height="90" rx="16" fill="#131d2b"/>
    <rect x="540" y="60" width="140" height="70" rx="14" fill="#131d2b"/>
    <rect x="100" y="250" width="160" height="90" rx="16" fill="#131d2b"/>
    <rect x="300" y="250" width="140" height="90" rx="16" fill="#131d2b"/>
    <rect x="480" y="250" width="160" height="90" rx="16" fill="#131d2b"/>
  </g>
  <g stroke="url(#glow)" stroke-width="3" fill="none">
    <path d="M180 95h80"/>
    <path d="M460 85h80"/>
    <path d="M360 130v110"/>
    <path d="M180 285h120"/>
    <path d="M440 285h40"/>
    <path d="M520 130v120"/>
  </g>
  <g fill="#15d1b0" font-family="Space Grotesk, sans-serif" font-size="12">
    <text x="72" y="104">Firewall</text>
    <text x="312" y="92">Router</text>
    <text x="570" y="104">Switch</text>
    <text x="138" y="300">Server</text>
    <text x="326" y="300">SIEM</text>
    <text x="528" y="300">PC</text>
  </g>
  <g fill="#00f0c8">
    <circle cx="200" cy="95" r="4"/>
    <circle cx="260" cy="95" r="4"/>
    <circle cx="460" cy="85" r="4"/>
    <circle cx="520" cy="85" r="4"/>
    <circle cx="360" cy="240" r="4"/>
    <circle cx="520" cy="240" r="4"/>
  </g>
</svg>
