<svg xmlns="http://www.w3.org/2000/svg" width="900" height="520" viewBox="0 0 900 520">
  <defs>
    <linearGradient id="bg" x1="0" y1="0" x2="1" y2="1">
      <stop offset="0%" stop-color="#0b121a"/>
      <stop offset="100%" stop-color="#121f2f"/>
    </linearGradient>
    <linearGradient id="teal" x1="0" y1="0" x2="1" y2="0">
      <stop offset="0%" stop-color="#15d1b0"/>
      <stop offset="100%" stop-color="#00f0c8"/>
    </linearGradient>
  </defs>
  <rect width="900" height="520" rx="28" fill="url(#bg)"/>
  <g opacity="0.35" stroke="#1f2f44" stroke-width="1">
    <path d="M40 90h820"/>
    <path d="M40 150h820"/>
    <path d="M40 210h820"/>
    <path d="M40 270h820"/>
    <path d="M40 330h820"/>
    <path d="M40 390h820"/>
    <path d="M40 450h820"/>
  </g>
  <g>
    <rect x="60" y="60" width="260" height="120" rx="16" fill="#0f1722" stroke="#1f2f44"/>
    <rect x="80" y="90" width="220" height="14" rx="7" fill="#1f2f44"/>
    <rect x="80" y="116" width="180" height="14" rx="7" fill="url(#teal)"/>
  </g>
  <g>
    <rect x="360" y="60" width="480" height="180" rx="16" fill="#0f1722" stroke="#1f2f44"/>
    <rect x="390" y="95" width="120" height="100" rx="12" fill="#131d2b"/>
    <rect x="530" y="95" width="120" height="100" rx="12" fill="#131d2b"/>
    <rect x="670" y="95" width="120" height="100" rx="12" fill="#131d2b"/>
  </g>
  <g>
    <rect x="60" y="230" width="360" height="200" rx="16" fill="#0f1722" stroke="#1f2f44"/>
    <path d="M90 390h280" stroke="url(#teal)" stroke-width="6"/>
    <path d="M90 360h200" stroke="#ffb347" stroke-width="6"/>
    <path d="M90 330h240" stroke="#3b82f6" stroke-width="6"/>
  </g>
  <g>
    <rect x="450" y="260" width="390" height="170" rx="16" fill="#0f1722" stroke="#1f2f44"/>
    <circle cx="510" cy="320" r="28" fill="url(#teal)" opacity="0.7"/>
    <circle cx="600" cy="320" r="28" fill="#ffb347" opacity="0.7"/>
    <circle cx="690" cy="320" r="28" fill="#3b82f6" opacity="0.7"/>
    <rect x="480" y="360" width="320" height="14" rx="7" fill="#1f2f44"/>
    <rect x="480" y="382" width="240" height="14" rx="7" fill="url(#teal)"/>
  </g>
</svg>
