<svg xmlns="http://www.w3.org/2000/svg" width="1200" height="720" viewBox="0 0 1200 720">
  <defs>
    <linearGradient id="bg" x1="0" y1="0" x2="1" y2="1">
      <stop offset="0%" stop-color="#081018"/>
      <stop offset="100%" stop-color="#121f2f"/>
    </linearGradient>
    <linearGradient id="glow" x1="0" y1="0" x2="1" y2="0">
      <stop offset="0%" stop-color="#15d1b0"/>
      <stop offset="100%" stop-color="#00f0c8"/>
    </linearGradient>
    <linearGradient id="accent" x1="0" y1="0" x2="1" y2="1">
      <stop offset="0%" stop-color="#ffb347"/>
      <stop offset="100%" stop-color="#f97316"/>
    </linearGradient>
  </defs>
  <rect width="1200" height="720" rx="36" fill="url(#bg)"/>
  <g opacity="0.35" stroke="#1f2f44" stroke-width="1">
    <path d="M60 120h1080"/>
    <path d="M60 200h1080"/>
    <path d="M60 280h1080"/>
    <path d="M60 360h1080"/>
    <path d="M60 440h1080"/>
    <path d="M60 520h1080"/>
    <path d="M60 600h1080"/>
  </g>
  <rect x="60" y="60" width="1080" height="80" rx="20" fill="#0f1722" stroke="#1f2f44"/>
  <circle cx="110" cy="100" r="10" fill="#15d1b0"/>
  <circle cx="150" cy="100" r="10" fill="#ffb347"/>
  <circle cx="190" cy="100" r="10" fill="#3b82f6"/>
  <rect x="240" y="88" width="260" height="24" rx="12" fill="#1f2f44"/>
  <rect x="520" y="88" width="180" height="24" rx="12" fill="url(#glow)"/>
  <rect x="60" y="170" width="360" height="210" rx="22" fill="#0f1722" stroke="#1f2f44"/>
  <rect x="90" y="210" width="300" height="16" rx="8" fill="#1f2f44"/>
  <rect x="90" y="240" width="260" height="16" rx="8" fill="url(#glow)"/>
  <rect x="90" y="270" width="220" height="16" rx="8" fill="#3b82f6"/>
  <rect x="90" y="300" width="280" height="16" rx="8" fill="#ffb347"/>
  <rect x="90" y="330" width="200" height="16" rx="8" fill="#1f2f44"/>
  <rect x="440" y="170" width="700" height="210" rx="22" fill="#0f1722" stroke="#1f2f44"/>
  <rect x="480" y="210" width="180" height="120" rx="18" fill="#121d2b" stroke="#1f2f44"/>
  <rect x="690" y="210" width="180" height="120" rx="18" fill="#121d2b" stroke="#1f2f44"/>
  <rect x="900" y="210" width="200" height="120" rx="18" fill="#121d2b" stroke="#1f2f44"/>
  <circle cx="560" cy="270" r="36" fill="url(#glow)" opacity="0.8"/>
  <circle cx="770" cy="270" r="36" fill="url(#accent)" opacity="0.8"/>
  <circle cx="1000" cy="270" r="36" fill="#3b82f6" opacity="0.8"/>
  <rect x="60" y="410" width="520" height="240" rx="22" fill="#0f1722" stroke="#1f2f44"/>
  <path d="M100 580l80-60 70 30 80-90 90 70 100-110" fill="none" stroke="url(#glow)" stroke-width="6"/>
  <path d="M100 540l80-30 70 20 80-40 90 40 100-60" fill="none" stroke="#3b82f6" stroke-width="4" opacity="0.8"/>
  <rect x="600" y="410" width="540" height="240" rx="22" fill="#0f1722" stroke="#1f2f44"/>
  <rect x="640" y="450" width="460" height="22" rx="11" fill="#1f2f44"/>
  <rect x="640" y="480" width="360" height="22" rx="11" fill="url(#glow)"/>
  <rect x="640" y="520" width="420" height="22" rx="11" fill="#ffb347"/>
  <rect x="640" y="560" width="300" height="22" rx="11" fill="#1f2f44"/>
  <rect x="640" y="600" width="380" height="22" rx="11" fill="#3b82f6"/>
</svg>
